<svg xmlns="http://www.w3.org/2000/svg" viewBox="0 0 256 256" width="256" height="256">
  <rect width="256" height="256" rx="56" fill="#111318"/>
  <g fill="#EDEAE3">
  <circle cx="117.4" cy="137.7" r="2.34" fill-opacity="0.94"/>
  <circle cx="129.8" cy="107.7" r="2.47" fill-opacity="0.92"/>
  <circle cx="143.2" cy="147.8" r="2.61" fill-opacity="0.91"/>
  <circle cx="99.6" cy="123.0" r="2.74" fill-opacity="0.89"/>
  <circle cx="155.2" cy="110.7" r="2.88" fill-opacity="0.88"/>
  <circle cx="118.8" cy="162.1" r="3.01" fill-opacity="0.86"/>
  <circle cx="110.4" cy="94.2" r="3.15" fill-opacity="0.85"/>
  <circle cx="166.3" cy="142.0" r="3.28" fill-opacity="0.83"/>
  <circle cx="88.1" cy="144.5" r="3.42" fill-opacity="0.82"/>
  <circle cx="147.3" cy="86.7" r="3.55" fill-opacity="0.80"/>
  <circle cx="142.3" cy="173.6" r="3.69" fill-opacity="0.79"/>
  <circle cx="84.8" cy="103.0" r="3.82" fill-opacity="0.77"/>
  <circle cx="178.7" cy="116.8" r="3.96" fill-opacity="0.76"/>
  <circle cx="97.0" cy="172.1" r="4.09" fill-opacity="0.74"/>
  <circle cx="120.8" cy="72.7" r="4.23" fill-opacity="0.73"/>
  <circle cx="172.1" cy="165.1" r="4.36" fill-opacity="0.71"/>
  <circle cx="68.7" cy="130.5" r="4.50" fill-opacity="0.70"/>
  <circle cx="171.3" cy="84.9" r="4.64" fill-opacity="0.69"/>
  <circle cx="125.1" cy="190.7" r="4.77" fill-opacity="0.67"/>
  <circle cx="86.7" cy="78.5" r="4.91" fill-opacity="0.66"/>
  <circle cx="193.4" cy="136.8" r="5.04" fill-opacity="0.64"/>
  <circle cx="72.5" cy="166.6" r="5.18" fill-opacity="0.63"/>
  <circle cx="143.2" cy="60.6" r="5.31" fill-opacity="0.61"/>
  <circle cx="163.1" cy="189.2" r="5.45" fill-opacity="0.60"/>
  <circle cx="59.4" cy="106.1" r="5.58" fill-opacity="0.58"/>
  <circle cx="194.7" cy="97.2" r="5.72" fill-opacity="0.57"/>
  <circle cx="99.1" cy="197.1" r="5.85" fill-opacity="0.55"/>
  <circle cx="102.2" cy="56.3" r="5.99" fill-opacity="0.54"/>
  <circle cx="196.7" cy="164.1" r="6.12" fill-opacity="0.52"/>
  <circle cx="51.7" cy="148.1" r="6.26" fill-opacity="0.51"/>
  <circle cx="171.4" cy="60.5" r="6.39" fill-opacity="0.49"/>
  <circle cx="141.8" cy="208.3" r="6.53" fill-opacity="0.48"/>
  <circle cx="62.6" cy="77.3" r="6.66" fill-opacity="0.46"/>
  <circle cx="211.7" cy="121.1" r="6.80" fill-opacity="0.45"/>
  </g>
  <circle cx="128" cy="128" r="7" fill="#F2A541"/>
</svg>
